<mxfile host="app.diagrams.net" modified="2022-08-30T07:53:00.998Z" agent="5.0 (X11; Linux x86_64) AppleWebKit/537.36 (KHTML, like Gecko) Chrome/100.0.4896.60 Safari/537.36" etag="1GCWjo9gb3dZ3-ycqKA5" version="20.2.6" type="github">
  <diagram id="h67QvSPvKZI-TzzA5_DD" name="Page-1">
    <mxGraphModel dx="868" dy="521" grid="1" gridSize="10" guides="1" tooltips="1" connect="1" arrows="1" fold="1" page="1" pageScale="1" pageWidth="827" pageHeight="1169" math="0" shadow="0">
      <root>
        <mxCell id="0" />
        <mxCell id="1" parent="0" />
        <mxCell id="bo3b_dlIuyAkx5_TJqp7-1" value="Admin" style="shape=umlActor;verticalLabelPosition=bottom;verticalAlign=top;html=1;outlineConnect=0;strokeWidth=1;" parent="1" vertex="1">
          <mxGeometry x="70" y="140" width="20" height="40" as="geometry" />
        </mxCell>
        <mxCell id="bo3b_dlIuyAkx5_TJqp7-3" value="Parent" style="shape=umlActor;verticalLabelPosition=bottom;verticalAlign=top;html=1;outlineConnect=0;strokeWidth=1;" parent="1" vertex="1">
          <mxGeometry x="750" y="730" width="20" height="40" as="geometry" />
        </mxCell>
        <mxCell id="bo3b_dlIuyAkx5_TJqp7-4" value="Student" style="shape=umlActor;verticalLabelPosition=bottom;verticalAlign=top;html=1;outlineConnect=0;strokeWidth=1;" parent="1" vertex="1">
          <mxGeometry x="750" y="430" width="20" height="40" as="geometry" />
        </mxCell>
        <mxCell id="bo3b_dlIuyAkx5_TJqp7-5" value="Teachers" style="shape=umlActor;verticalLabelPosition=bottom;verticalAlign=top;html=1;outlineConnect=0;strokeWidth=1;" parent="1" vertex="1">
          <mxGeometry x="50" y="610" width="20" height="40" as="geometry" />
        </mxCell>
        <mxCell id="bo3b_dlIuyAkx5_TJqp7-8" value="&lt;font style=&quot;font-size: 30px;&quot;&gt;School management System&lt;/font&gt;" style="text;html=1;resizable=0;autosize=1;align=center;verticalAlign=middle;points=[];fillColor=none;strokeColor=none;rounded=0;fontColor=#636363;" parent="1" vertex="1">
          <mxGeometry x="209" y="30" width="410" height="50" as="geometry" />
        </mxCell>
        <mxCell id="bo3b_dlIuyAkx5_TJqp7-9" value="&lt;div style=&quot;&quot;&gt;&lt;span style=&quot;background-color: initial;&quot;&gt;&lt;font style=&quot;font-size: 16px;&quot;&gt;register new student&lt;/font&gt;&lt;/span&gt;&lt;/div&gt;" style="ellipse;whiteSpace=wrap;html=1;fontSize=30;fontColor=#636363;strokeWidth=1;align=center;" parent="1" vertex="1">
          <mxGeometry x="314" y="140" width="176" height="40" as="geometry" />
        </mxCell>
        <mxCell id="bo3b_dlIuyAkx5_TJqp7-12" value="" style="endArrow=none;html=1;rounded=0;fontSize=20;fontColor=#636363;exitX=1;exitY=0.3333333333333333;exitDx=0;exitDy=0;exitPerimeter=0;entryX=0;entryY=0.5;entryDx=0;entryDy=0;" parent="1" source="bo3b_dlIuyAkx5_TJqp7-1" target="bo3b_dlIuyAkx5_TJqp7-9" edge="1">
          <mxGeometry width="50" height="50" relative="1" as="geometry">
            <mxPoint x="159" y="185" as="sourcePoint" />
            <mxPoint x="209" y="135" as="targetPoint" />
          </mxGeometry>
        </mxCell>
        <mxCell id="bo3b_dlIuyAkx5_TJqp7-13" value="" style="endArrow=none;html=1;rounded=0;fontSize=20;fontColor=#636363;exitX=1;exitY=0.3333333333333333;exitDx=0;exitDy=0;exitPerimeter=0;entryX=0;entryY=0.5;entryDx=0;entryDy=0;" parent="1" source="bo3b_dlIuyAkx5_TJqp7-1" target="bo3b_dlIuyAkx5_TJqp7-18" edge="1">
          <mxGeometry width="50" height="50" relative="1" as="geometry">
            <mxPoint x="100" y="163.33333333333337" as="sourcePoint" />
            <mxPoint x="313.99999999999955" y="335" as="targetPoint" />
          </mxGeometry>
        </mxCell>
        <mxCell id="bo3b_dlIuyAkx5_TJqp7-14" value="" style="endArrow=none;html=1;rounded=0;fontSize=20;fontColor=#636363;entryX=0;entryY=0.5;entryDx=0;entryDy=0;exitX=1;exitY=0.3333333333333333;exitDx=0;exitDy=0;exitPerimeter=0;" parent="1" source="bo3b_dlIuyAkx5_TJqp7-1" target="bo3b_dlIuyAkx5_TJqp7-16" edge="1">
          <mxGeometry width="50" height="50" relative="1" as="geometry">
            <mxPoint x="100" y="180" as="sourcePoint" />
            <mxPoint x="313.99999999999955" y="265" as="targetPoint" />
          </mxGeometry>
        </mxCell>
        <mxCell id="bo3b_dlIuyAkx5_TJqp7-16" value="&lt;div style=&quot;&quot;&gt;&lt;span style=&quot;background-color: initial;&quot;&gt;&lt;font style=&quot;font-size: 16px;&quot;&gt;register new faculty&lt;/font&gt;&lt;/span&gt;&lt;/div&gt;" style="ellipse;whiteSpace=wrap;html=1;fontSize=30;fontColor=#636363;strokeWidth=1;align=center;" parent="1" vertex="1">
          <mxGeometry x="314" y="200" width="176" height="40" as="geometry" />
        </mxCell>
        <mxCell id="bo3b_dlIuyAkx5_TJqp7-18" value="&lt;div style=&quot;&quot;&gt;&lt;span style=&quot;background-color: initial;&quot;&gt;&lt;font style=&quot;font-size: 16px;&quot;&gt;view contact details&lt;/font&gt;&lt;/span&gt;&lt;/div&gt;" style="ellipse;whiteSpace=wrap;html=1;fontSize=30;fontColor=#636363;strokeWidth=1;align=center;" parent="1" vertex="1">
          <mxGeometry x="310" y="260" width="176" height="40" as="geometry" />
        </mxCell>
        <mxCell id="bo3b_dlIuyAkx5_TJqp7-19" value="&lt;div style=&quot;&quot;&gt;&lt;span style=&quot;background-color: initial;&quot;&gt;&lt;font style=&quot;font-size: 16px;&quot;&gt;pay fees&lt;/font&gt;&lt;/span&gt;&lt;/div&gt;" style="ellipse;whiteSpace=wrap;html=1;fontSize=30;fontColor=#636363;strokeWidth=1;align=center;" parent="1" vertex="1">
          <mxGeometry x="312" y="940" width="176" height="40" as="geometry" />
        </mxCell>
        <mxCell id="bo3b_dlIuyAkx5_TJqp7-20" value="&lt;div style=&quot;&quot;&gt;&lt;span style=&quot;background-color: initial;&quot;&gt;&lt;font style=&quot;font-size: 16px;&quot;&gt;login&lt;/font&gt;&lt;/span&gt;&lt;/div&gt;" style="ellipse;whiteSpace=wrap;html=1;fontSize=30;fontColor=#636363;strokeWidth=1;align=center;" parent="1" vertex="1">
          <mxGeometry x="308" y="320" width="176" height="40" as="geometry" />
        </mxCell>
        <mxCell id="bo3b_dlIuyAkx5_TJqp7-21" value="&lt;div style=&quot;&quot;&gt;&lt;span style=&quot;background-color: initial;&quot;&gt;&lt;font style=&quot;font-size: 16px;&quot;&gt;notification&lt;/font&gt;&lt;/span&gt;&lt;/div&gt;" style="ellipse;whiteSpace=wrap;html=1;fontSize=30;fontColor=#636363;strokeWidth=1;align=center;" parent="1" vertex="1">
          <mxGeometry x="308" y="520" width="176" height="40" as="geometry" />
        </mxCell>
        <mxCell id="bo3b_dlIuyAkx5_TJqp7-22" value="&lt;div style=&quot;&quot;&gt;&lt;span style=&quot;background-color: initial;&quot;&gt;&lt;font style=&quot;font-size: 16px;&quot;&gt;add attendance&lt;/font&gt;&lt;/span&gt;&lt;/div&gt;" style="ellipse;whiteSpace=wrap;html=1;fontSize=30;fontColor=#636363;strokeWidth=1;align=center;" parent="1" vertex="1">
          <mxGeometry x="308" y="590" width="176" height="40" as="geometry" />
        </mxCell>
        <mxCell id="bo3b_dlIuyAkx5_TJqp7-23" value="&lt;div style=&quot;&quot;&gt;&lt;span style=&quot;font-size: 16px;&quot;&gt;LMS&lt;/span&gt;&lt;/div&gt;" style="ellipse;whiteSpace=wrap;html=1;fontSize=30;fontColor=#636363;strokeWidth=1;align=center;" parent="1" vertex="1">
          <mxGeometry x="308" y="660" width="176" height="40" as="geometry" />
        </mxCell>
        <mxCell id="bo3b_dlIuyAkx5_TJqp7-24" value="&lt;div style=&quot;&quot;&gt;&lt;span style=&quot;font-size: 16px;&quot;&gt;arrange activities&lt;/span&gt;&lt;/div&gt;" style="ellipse;whiteSpace=wrap;html=1;fontSize=30;fontColor=#636363;strokeWidth=1;align=center;" parent="1" vertex="1">
          <mxGeometry x="308" y="730" width="176" height="40" as="geometry" />
        </mxCell>
        <mxCell id="bo3b_dlIuyAkx5_TJqp7-25" value="&lt;div style=&quot;&quot;&gt;&lt;span style=&quot;font-size: 16px;&quot;&gt;arrange exam&lt;/span&gt;&lt;/div&gt;" style="ellipse;whiteSpace=wrap;html=1;fontSize=30;fontColor=#636363;strokeWidth=1;align=center;" parent="1" vertex="1">
          <mxGeometry x="312" y="800" width="176" height="40" as="geometry" />
        </mxCell>
        <mxCell id="bo3b_dlIuyAkx5_TJqp7-26" value="&lt;div style=&quot;&quot;&gt;&lt;span style=&quot;font-size: 16px;&quot;&gt;result&lt;/span&gt;&lt;/div&gt;" style="ellipse;whiteSpace=wrap;html=1;fontSize=30;fontColor=#636363;strokeWidth=1;align=center;" parent="1" vertex="1">
          <mxGeometry x="308" y="870" width="176" height="40" as="geometry" />
        </mxCell>
        <mxCell id="bo3b_dlIuyAkx5_TJqp7-27" value="&lt;div style=&quot;&quot;&gt;&lt;span style=&quot;background-color: initial;&quot;&gt;&lt;font style=&quot;font-size: 16px;&quot;&gt;update profile&lt;/font&gt;&lt;/span&gt;&lt;/div&gt;" style="ellipse;whiteSpace=wrap;html=1;fontSize=30;fontColor=#636363;strokeWidth=1;align=center;" parent="1" vertex="1">
          <mxGeometry x="308" y="390" width="176" height="40" as="geometry" />
        </mxCell>
        <mxCell id="bo3b_dlIuyAkx5_TJqp7-28" value="&lt;div style=&quot;&quot;&gt;&lt;span style=&quot;background-color: initial;&quot;&gt;&lt;font style=&quot;font-size: 16px;&quot;&gt;change password&lt;/font&gt;&lt;/span&gt;&lt;/div&gt;" style="ellipse;whiteSpace=wrap;html=1;fontSize=30;fontColor=#636363;strokeWidth=1;align=center;" parent="1" vertex="1">
          <mxGeometry x="308" y="460" width="176" height="40" as="geometry" />
        </mxCell>
        <mxCell id="bo3b_dlIuyAkx5_TJqp7-31" value="" style="endArrow=none;html=1;rounded=0;fontSize=20;fontColor=#636363;exitX=1;exitY=0.3333333333333333;exitDx=0;exitDy=0;exitPerimeter=0;entryX=0;entryY=0.5;entryDx=0;entryDy=0;" parent="1" source="bo3b_dlIuyAkx5_TJqp7-1" target="bo3b_dlIuyAkx5_TJqp7-20" edge="1">
          <mxGeometry width="50" height="50" relative="1" as="geometry">
            <mxPoint x="100" y="163.33333333333337" as="sourcePoint" />
            <mxPoint x="320.0000000000007" y="290" as="targetPoint" />
          </mxGeometry>
        </mxCell>
        <mxCell id="bo3b_dlIuyAkx5_TJqp7-33" value="" style="endArrow=none;html=1;rounded=0;fontSize=20;fontColor=#636363;exitX=1;exitY=0.3333333333333333;exitDx=0;exitDy=0;exitPerimeter=0;entryX=0;entryY=0.5;entryDx=0;entryDy=0;" parent="1" target="bo3b_dlIuyAkx5_TJqp7-27" edge="1">
          <mxGeometry width="50" height="50" relative="1" as="geometry">
            <mxPoint x="100" y="163.33333333333337" as="sourcePoint" />
            <mxPoint x="318.0000000000009" y="350" as="targetPoint" />
          </mxGeometry>
        </mxCell>
        <mxCell id="bo3b_dlIuyAkx5_TJqp7-34" value="" style="endArrow=none;html=1;rounded=0;fontSize=20;fontColor=#636363;exitX=1;exitY=0.3333333333333333;exitDx=0;exitDy=0;exitPerimeter=0;entryX=0;entryY=0.5;entryDx=0;entryDy=0;" parent="1" target="bo3b_dlIuyAkx5_TJqp7-28" edge="1">
          <mxGeometry width="50" height="50" relative="1" as="geometry">
            <mxPoint x="100" y="163.33333333333337" as="sourcePoint" />
            <mxPoint x="318.0000000000009" y="350" as="targetPoint" />
          </mxGeometry>
        </mxCell>
        <mxCell id="bo3b_dlIuyAkx5_TJqp7-35" value="" style="endArrow=none;html=1;rounded=0;fontSize=20;fontColor=#636363;exitX=1;exitY=0.3333333333333333;exitDx=0;exitDy=0;exitPerimeter=0;entryX=0;entryY=0.5;entryDx=0;entryDy=0;" parent="1" target="bo3b_dlIuyAkx5_TJqp7-21" edge="1">
          <mxGeometry width="50" height="50" relative="1" as="geometry">
            <mxPoint x="100" y="163.33333333333337" as="sourcePoint" />
            <mxPoint x="318.0000000000009" y="350" as="targetPoint" />
          </mxGeometry>
        </mxCell>
        <mxCell id="bo3b_dlIuyAkx5_TJqp7-36" value="" style="endArrow=none;html=1;rounded=0;fontSize=20;fontColor=#636363;exitX=0;exitY=0.5;exitDx=0;exitDy=0;entryX=1;entryY=0.3333333333333333;entryDx=0;entryDy=0;entryPerimeter=0;" parent="1" source="bo3b_dlIuyAkx5_TJqp7-22" target="bo3b_dlIuyAkx5_TJqp7-5" edge="1">
          <mxGeometry width="50" height="50" relative="1" as="geometry">
            <mxPoint x="60" y="400.00333333333333" as="sourcePoint" />
            <mxPoint x="268.0000000000009" y="776.67" as="targetPoint" />
            <Array as="points" />
          </mxGeometry>
        </mxCell>
        <mxCell id="bo3b_dlIuyAkx5_TJqp7-37" value="" style="endArrow=none;html=1;rounded=0;fontSize=20;fontColor=#636363;exitX=0;exitY=0.5;exitDx=0;exitDy=0;entryX=1;entryY=0.3333333333333333;entryDx=0;entryDy=0;entryPerimeter=0;" parent="1" source="bo3b_dlIuyAkx5_TJqp7-23" target="bo3b_dlIuyAkx5_TJqp7-5" edge="1">
          <mxGeometry width="50" height="50" relative="1" as="geometry">
            <mxPoint x="318.00000000000114" y="620" as="sourcePoint" />
            <mxPoint x="100" y="1063.3333333333335" as="targetPoint" />
            <Array as="points" />
          </mxGeometry>
        </mxCell>
        <mxCell id="bo3b_dlIuyAkx5_TJqp7-38" value="" style="endArrow=none;html=1;rounded=0;fontSize=20;fontColor=#636363;exitX=0;exitY=0.5;exitDx=0;exitDy=0;entryX=1;entryY=0.3333333333333333;entryDx=0;entryDy=0;entryPerimeter=0;" parent="1" source="bo3b_dlIuyAkx5_TJqp7-24" target="bo3b_dlIuyAkx5_TJqp7-5" edge="1">
          <mxGeometry width="50" height="50" relative="1" as="geometry">
            <mxPoint x="318.00000000000114" y="690" as="sourcePoint" />
            <mxPoint x="100" y="1063.3333333333335" as="targetPoint" />
            <Array as="points" />
          </mxGeometry>
        </mxCell>
        <mxCell id="bo3b_dlIuyAkx5_TJqp7-39" value="" style="endArrow=none;html=1;rounded=0;fontSize=20;fontColor=#636363;exitX=0;exitY=0.5;exitDx=0;exitDy=0;entryX=1;entryY=0.3333333333333333;entryDx=0;entryDy=0;entryPerimeter=0;" parent="1" source="bo3b_dlIuyAkx5_TJqp7-25" target="bo3b_dlIuyAkx5_TJqp7-5" edge="1">
          <mxGeometry width="50" height="50" relative="1" as="geometry">
            <mxPoint x="318.00000000000114" y="760" as="sourcePoint" />
            <mxPoint x="110" y="1073.3333333333335" as="targetPoint" />
            <Array as="points" />
          </mxGeometry>
        </mxCell>
        <mxCell id="bo3b_dlIuyAkx5_TJqp7-40" value="" style="endArrow=none;html=1;rounded=0;fontSize=20;fontColor=#636363;exitX=0;exitY=0.5;exitDx=0;exitDy=0;entryX=1;entryY=0.3333333333333333;entryDx=0;entryDy=0;entryPerimeter=0;" parent="1" source="bo3b_dlIuyAkx5_TJqp7-26" target="bo3b_dlIuyAkx5_TJqp7-5" edge="1">
          <mxGeometry width="50" height="50" relative="1" as="geometry">
            <mxPoint x="321.9999999999998" y="830" as="sourcePoint" />
            <mxPoint x="120" y="1083.3333333333335" as="targetPoint" />
            <Array as="points" />
          </mxGeometry>
        </mxCell>
        <mxCell id="bo3b_dlIuyAkx5_TJqp7-41" value="" style="endArrow=none;html=1;rounded=0;fontSize=20;fontColor=#636363;exitX=0;exitY=0.5;exitDx=0;exitDy=0;entryX=1;entryY=0.3333333333333333;entryDx=0;entryDy=0;entryPerimeter=0;" parent="1" source="bo3b_dlIuyAkx5_TJqp7-21" target="bo3b_dlIuyAkx5_TJqp7-5" edge="1">
          <mxGeometry width="50" height="50" relative="1" as="geometry">
            <mxPoint x="317.9999999999975" y="620" as="sourcePoint" />
            <mxPoint x="100" y="810" as="targetPoint" />
            <Array as="points" />
          </mxGeometry>
        </mxCell>
        <mxCell id="bo3b_dlIuyAkx5_TJqp7-42" value="" style="endArrow=none;html=1;rounded=0;fontSize=20;fontColor=#636363;exitX=0;exitY=0.5;exitDx=0;exitDy=0;entryX=1;entryY=0.3333333333333333;entryDx=0;entryDy=0;entryPerimeter=0;" parent="1" source="bo3b_dlIuyAkx5_TJqp7-28" target="bo3b_dlIuyAkx5_TJqp7-5" edge="1">
          <mxGeometry width="50" height="50" relative="1" as="geometry">
            <mxPoint x="317.9999999999975" y="550" as="sourcePoint" />
            <mxPoint x="110" y="1073.3333333333333" as="targetPoint" />
            <Array as="points" />
          </mxGeometry>
        </mxCell>
        <mxCell id="bo3b_dlIuyAkx5_TJqp7-43" value="" style="endArrow=none;html=1;rounded=0;fontSize=20;fontColor=#636363;exitX=0;exitY=0.5;exitDx=0;exitDy=0;entryX=1;entryY=0.3333333333333333;entryDx=0;entryDy=0;entryPerimeter=0;" parent="1" source="bo3b_dlIuyAkx5_TJqp7-27" target="bo3b_dlIuyAkx5_TJqp7-5" edge="1">
          <mxGeometry width="50" height="50" relative="1" as="geometry">
            <mxPoint x="318.00000000000114" y="490" as="sourcePoint" />
            <mxPoint x="70" y="720" as="targetPoint" />
            <Array as="points" />
          </mxGeometry>
        </mxCell>
        <mxCell id="bo3b_dlIuyAkx5_TJqp7-44" value="" style="endArrow=none;html=1;rounded=0;fontSize=20;fontColor=#636363;exitX=0;exitY=0.5;exitDx=0;exitDy=0;entryX=1;entryY=0.3333333333333333;entryDx=0;entryDy=0;entryPerimeter=0;" parent="1" source="bo3b_dlIuyAkx5_TJqp7-20" target="bo3b_dlIuyAkx5_TJqp7-5" edge="1">
          <mxGeometry width="50" height="50" relative="1" as="geometry">
            <mxPoint x="318.00000000000114" y="420" as="sourcePoint" />
            <mxPoint x="130" y="1093.3333333333333" as="targetPoint" />
            <Array as="points" />
          </mxGeometry>
        </mxCell>
        <mxCell id="bo3b_dlIuyAkx5_TJqp7-45" value="" style="endArrow=none;html=1;rounded=0;fontSize=16;fontColor=#636363;entryX=0;entryY=0.3333333333333333;entryDx=0;entryDy=0;entryPerimeter=0;exitX=1;exitY=0.5;exitDx=0;exitDy=0;" parent="1" source="bo3b_dlIuyAkx5_TJqp7-20" target="bo3b_dlIuyAkx5_TJqp7-4" edge="1">
          <mxGeometry width="50" height="50" relative="1" as="geometry">
            <mxPoint x="590" y="475" as="sourcePoint" />
            <mxPoint x="640" y="425" as="targetPoint" />
          </mxGeometry>
        </mxCell>
        <mxCell id="bo3b_dlIuyAkx5_TJqp7-46" value="" style="endArrow=none;html=1;rounded=0;fontSize=16;fontColor=#636363;exitX=1;exitY=0.5;exitDx=0;exitDy=0;entryX=0;entryY=0.3333333333333333;entryDx=0;entryDy=0;entryPerimeter=0;" parent="1" source="bo3b_dlIuyAkx5_TJqp7-27" target="bo3b_dlIuyAkx5_TJqp7-4" edge="1">
          <mxGeometry width="50" height="50" relative="1" as="geometry">
            <mxPoint x="494.0000000000007" y="350" as="sourcePoint" />
            <mxPoint x="740" y="440" as="targetPoint" />
          </mxGeometry>
        </mxCell>
        <mxCell id="bo3b_dlIuyAkx5_TJqp7-47" value="" style="endArrow=none;html=1;rounded=0;fontSize=16;fontColor=#636363;entryX=0;entryY=0.3333333333333333;entryDx=0;entryDy=0;entryPerimeter=0;exitX=1;exitY=0.5;exitDx=0;exitDy=0;" parent="1" source="bo3b_dlIuyAkx5_TJqp7-28" target="bo3b_dlIuyAkx5_TJqp7-4" edge="1">
          <mxGeometry width="50" height="50" relative="1" as="geometry">
            <mxPoint x="494.0000000000007" y="420" as="sourcePoint" />
            <mxPoint x="770" y="463.33333333333337" as="targetPoint" />
          </mxGeometry>
        </mxCell>
        <mxCell id="bo3b_dlIuyAkx5_TJqp7-48" value="" style="endArrow=none;html=1;rounded=0;fontSize=16;fontColor=#636363;exitX=1;exitY=0.5;exitDx=0;exitDy=0;entryX=0;entryY=0.3333333333333333;entryDx=0;entryDy=0;entryPerimeter=0;" parent="1" source="bo3b_dlIuyAkx5_TJqp7-21" target="bo3b_dlIuyAkx5_TJqp7-4" edge="1">
          <mxGeometry width="50" height="50" relative="1" as="geometry">
            <mxPoint x="494.0000000000007" y="489.9999999999999" as="sourcePoint" />
            <mxPoint x="750" y="440" as="targetPoint" />
          </mxGeometry>
        </mxCell>
        <mxCell id="bo3b_dlIuyAkx5_TJqp7-49" value="" style="endArrow=none;html=1;rounded=0;fontSize=16;fontColor=#636363;entryX=0;entryY=0.3333333333333333;entryDx=0;entryDy=0;entryPerimeter=0;exitX=1;exitY=0.5;exitDx=0;exitDy=0;" parent="1" source="bo3b_dlIuyAkx5_TJqp7-19" target="bo3b_dlIuyAkx5_TJqp7-3" edge="1">
          <mxGeometry width="50" height="50" relative="1" as="geometry">
            <mxPoint x="610" y="1020" as="sourcePoint" />
            <mxPoint x="660" y="970" as="targetPoint" />
          </mxGeometry>
        </mxCell>
        <mxCell id="bo3b_dlIuyAkx5_TJqp7-50" value="" style="endArrow=none;html=1;rounded=0;fontSize=16;fontColor=#636363;exitX=1;exitY=0.5;exitDx=0;exitDy=0;" parent="1" source="bo3b_dlIuyAkx5_TJqp7-26" target="bo3b_dlIuyAkx5_TJqp7-3" edge="1">
          <mxGeometry width="50" height="50" relative="1" as="geometry">
            <mxPoint x="498" y="970" as="sourcePoint" />
            <mxPoint x="760" y="1063.3333333333333" as="targetPoint" />
          </mxGeometry>
        </mxCell>
        <mxCell id="bo3b_dlIuyAkx5_TJqp7-51" value="" style="endArrow=none;html=1;rounded=0;fontSize=16;fontColor=#636363;exitX=1;exitY=0.5;exitDx=0;exitDy=0;entryX=0;entryY=0.3333333333333333;entryDx=0;entryDy=0;entryPerimeter=0;" parent="1" source="bo3b_dlIuyAkx5_TJqp7-28" target="bo3b_dlIuyAkx5_TJqp7-3" edge="1">
          <mxGeometry width="50" height="50" relative="1" as="geometry">
            <mxPoint x="494.0000000000025" y="899.9999999999998" as="sourcePoint" />
            <mxPoint x="760" y="1063.8405797101448" as="targetPoint" />
          </mxGeometry>
        </mxCell>
        <mxCell id="bo3b_dlIuyAkx5_TJqp7-52" value="" style="endArrow=none;html=1;rounded=0;fontSize=16;fontColor=#636363;exitX=1;exitY=0.5;exitDx=0;exitDy=0;entryX=0;entryY=0.3333333333333333;entryDx=0;entryDy=0;entryPerimeter=0;" parent="1" source="bo3b_dlIuyAkx5_TJqp7-27" target="bo3b_dlIuyAkx5_TJqp7-3" edge="1">
          <mxGeometry width="50" height="50" relative="1" as="geometry">
            <mxPoint x="504.0000000000025" y="909.9999999999998" as="sourcePoint" />
            <mxPoint x="770" y="1073.8405797101448" as="targetPoint" />
          </mxGeometry>
        </mxCell>
        <mxCell id="bo3b_dlIuyAkx5_TJqp7-53" value="" style="endArrow=none;html=1;rounded=0;fontSize=16;fontColor=#636363;exitX=1;exitY=0.5;exitDx=0;exitDy=0;entryX=0;entryY=0.3333333333333333;entryDx=0;entryDy=0;entryPerimeter=0;" parent="1" source="bo3b_dlIuyAkx5_TJqp7-20" target="bo3b_dlIuyAkx5_TJqp7-3" edge="1">
          <mxGeometry width="50" height="50" relative="1" as="geometry">
            <mxPoint x="514.0000000000025" y="919.9999999999998" as="sourcePoint" />
            <mxPoint x="750" y="1050" as="targetPoint" />
          </mxGeometry>
        </mxCell>
        <mxCell id="bo3b_dlIuyAkx5_TJqp7-54" value="" style="endArrow=none;html=1;rounded=0;fontSize=16;fontColor=#636363;exitX=1;exitY=0.5;exitDx=0;exitDy=0;entryX=0;entryY=0.3333333333333333;entryDx=0;entryDy=0;entryPerimeter=0;" parent="1" source="bo3b_dlIuyAkx5_TJqp7-21" target="bo3b_dlIuyAkx5_TJqp7-3" edge="1">
          <mxGeometry width="50" height="50" relative="1" as="geometry">
            <mxPoint x="494.0000000000025" y="490" as="sourcePoint" />
            <mxPoint x="770" y="1073.8405797101448" as="targetPoint" />
          </mxGeometry>
        </mxCell>
      </root>
    </mxGraphModel>
  </diagram>
</mxfile>
